<?xml version="1.0" standalone="no"?>
<!DOCTYPE svg PUBLIC "-//W3C//DTD SVG 20010904//EN"
 "http://www.w3.org/TR/2001/REC-SVG-20010904/DTD/svg10.dtd">
<svg version="1.0" xmlns="http://www.w3.org/2000/svg"
 width="64.000000pt" height="64.000000pt" viewBox="0 0 64.000000 64.000000"
 preserveAspectRatio="xMidYMid meet">

<g transform="translate(0.000000,64.000000) scale(0.100000,-0.100000)"
fill="#000000" stroke="none">
<path d="M220 624 c-143 -52 -230 -184 -217 -329 11 -119 70 -206 175 -257 57
-28 77 -33 142 -33 65 0 85 4 143 33 153 75 218 258 149 415 -26 59 -100 133
-160 159 -63 28 -172 34 -232 12z m-17 -142 c-9 -6 1 -18 32 -40 34 -24 43
-27 36 -13 -6 11 -16 22 -23 24 -9 4 -9 6 -1 6 19 2 62 -57 69 -94 6 -31 10
-35 38 -35 27 0 35 6 48 32 l15 32 8 -54 8 -55 10 35 c5 19 12 29 14 23 3 -7
12 -13 21 -14 12 0 11 -3 -5 -9 -15 -6 -24 -22 -31 -52 l-9 -43 -7 40 c-12 63
-17 73 -25 51 -5 -12 -10 -15 -14 -9 -4 6 -32 14 -62 18 -38 4 -55 11 -55 21
0 8 -4 14 -10 14 -5 0 -10 -12 -10 -26 0 -14 -4 -23 -10 -19 -5 3 -10 28 -10
56 0 61 -15 64 -24 4 -6 -39 -10 -45 -32 -45 -13 0 -24 -4 -24 -10 0 -5 9 -10
19 -10 11 0 22 -6 24 -12 4 -8 9 -3 13 12 7 21 10 14 19 -40 l11 -65 13 53
c12 47 16 52 41 52 24 0 28 -4 33 -39 17 -128 189 -177 269 -77 34 42 17 0
-20 -49 -144 -192 -424 -170 -527 40 -63 128 -36 251 65 297 21 9 108 9 93 0z
m371 -144 c8 -13 8 -23 0 -35 -16 -25 -31 -26 -54 -3 -17 17 -18 24 -10 41 13
24 48 22 64 -3z"/>
<path d="M76 357 c-22 -16 -18 -55 7 -71 39 -24 79 44 41 71 -10 7 -21 13 -24
13 -3 0 -14 -6 -24 -13z"/>
</g>
</svg>
